HIERARCHY
ROOT Pelvis
{
	OFFSET 0.000000 0.000000 0.000000
	CHANNELS 6 Xposition Yposition Zposition Xrotation Yrotation Zrotation
	JOINT LeftUpLeg_virtual
	{
		OFFSET 0.000000 0.000000 0.000000
		CHANNELS 3 Xrotation Yrotation Zrotation
		JOINT LeftUpLeg
		{
			OFFSET 18.735201 -5.666702 -4.541200
			CHANNELS 3 Xrotation Yrotation Zrotation
			JOINT LeftLeg
			{
				OFFSET -0.021200 -31.938179 0.493100
				CHANNELS 3 Xrotation Yrotation Zrotation
				JOINT LeftFoot
				{
					OFFSET 0.021200 -31.938179 -4.336299
					CHANNELS 3 Xrotation Yrotation Zrotation
					JOINT LeftToeBase
					{
						OFFSET 0.943001 -26.722000 15.023500
						CHANNELS 3 Xrotation Yrotation Zrotation
						End Site
						{
							OFFSET 0 0 0
						}
					}
				}
			}
		}
	}
	JOINT RightUpLeg_virtual
	{
		OFFSET 0.000000 0.000000 0.000000
		CHANNELS 3 Xrotation Yrotation Zrotation
		JOINT RightUpLeg
		{
			OFFSET -18.735201 -5.666702 -4.541200
			CHANNELS 3 Xrotation Yrotation Zrotation
			JOINT RightLeg
			{
				OFFSET 0.018946 -31.938133 0.493100
				CHANNELS 3 Xrotation Yrotation Zrotation
				JOINT RightFoot
				{
					OFFSET -0.018946 -31.938126 -4.336299
					CHANNELS 3 Xrotation Yrotation Zrotation
					JOINT RightToeBase
					{
						OFFSET -0.943001 -26.722004 15.023500
						CHANNELS 3 Xrotation Yrotation Zrotation
						End Site
						{
							OFFSET 0 0 0
						}
					}
				}
			}
		}
	}
	JOINT Hips_virtual
	{
		OFFSET 0.000000 0.000000 0.000000
		CHANNELS 3 Xrotation Yrotation Zrotation
		JOINT Hips
		{
			OFFSET -0.000000 -0.000000 -0.000000
			CHANNELS 3 Xrotation Yrotation Zrotation
			JOINT Spine
			{
				OFFSET 0.000000 10.199997 -0.299500
				CHANNELS 3 Xrotation Yrotation Zrotation
				JOINT Spine1
				{
					OFFSET 0.000000 11.900002 -1.516600
					CHANNELS 3 Xrotation Yrotation Zrotation
					JOINT Spine2
					{
						OFFSET 0.000000 13.600006 -2.842500
						CHANNELS 3 Xrotation Yrotation Zrotation
						JOINT Neck_virtual
						{
							OFFSET 0.000000 0.000000 0.000000
							CHANNELS 3 Xrotation Yrotation Zrotation
							JOINT Neck
							{
								OFFSET 0.000000 9.624100 -2.890100
								CHANNELS 3 Xrotation Yrotation Zrotation
								JOINT Head
								{
									OFFSET 0.000000 14.068802 -1.351900
									CHANNELS 3 Xrotation Yrotation Zrotation
									End Site
									{
										OFFSET 0 0 0
									}
								}
							}
						}
						JOINT LeftShoulder_virtual
						{
							OFFSET 0.000000 0.000000 0.000000
							CHANNELS 3 Xrotation Yrotation Zrotation
							JOINT LeftShoulder
							{
								OFFSET 15.263000 10.923401 -0.547700
								CHANNELS 3 Xrotation Yrotation Zrotation
								JOINT LeftArm
								{
									OFFSET 25.438599 -2.830597 -13.032500
									CHANNELS 3 Xrotation Yrotation Zrotation
									JOINT LeftForeArm
									{
										OFFSET 29.960503 0.000000 0.000000
										CHANNELS 3 Xrotation Yrotation Zrotation
										JOINT LeftHand
										{
											OFFSET 27.849251 0.000000 0.000000
											CHANNELS 3 Xrotation Yrotation Zrotation
											End Site
											{
												OFFSET 0 0 0
											}
										}
									}
								}
							}
						}
						JOINT RightShoulder_virtual
						{
							OFFSET 0.000000 0.000000 0.000000
							CHANNELS 3 Xrotation Yrotation Zrotation
							JOINT RightShoulder
							{
								OFFSET -15.263000 10.923401 -0.547700
								CHANNELS 3 Xrotation Yrotation Zrotation
								JOINT RightArm
								{
									OFFSET -25.438599 -2.830597 -13.032500
									CHANNELS 3 Xrotation Yrotation Zrotation
									JOINT RightForeArm
									{
										OFFSET -29.960503 0.000000 0.000000
										CHANNELS 3 Xrotation Yrotation Zrotation
										JOINT RightHand
										{
											OFFSET -27.849251 0.000000 0.000000
											CHANNELS 3 Xrotation Yrotation Zrotation
											End Site
											{
												OFFSET 0 0 0
											}
										}
									}
								}
							}
						}
					}
				}
			}
		}
	}
}
MOTION
Frames: 9
Frame Time: 0.03333333
-2.744505 131.311020 10.205626 0.000000 0.000000 0.000000 5.687835 -19.408876 11.359230 -103.080443 -8.963631 24.432335 63.002737 -6.669273 -14.943889 17.884789 -7.468916 11.812623 0.000000 0.000000 0.000000 5.687835 -19.408876 11.359230 -117.670198 1.624079 11.100391 123.519695 -7.049589 -2.377244 50.728191 0.421244 -5.169599 0.000000 0.000000 0.000000 5.687835 -19.408876 11.359230 0.000000 0.000001 0.000000 34.382482 -7.103425 -10.913561 -1.919974 -0.704207 -1.068981 0.000000 0.000000 0.000000 -1.861953 -0.963995 -0.958726 -5.311223 1.924605 1.493913 0.000000 0.000000 0.000000 -1.861953 -0.963995 -0.958726 14.342941 -28.036214 31.312989 -54.053308 10.158288 9.211016 -39.508683 -62.618355 -18.464467 0.000000 0.000000 0.000000 -1.861953 -0.963995 -0.958726 3.778675 7.559641 -24.581258 -73.831449 -14.404387 -24.052250 -51.826178 60.836714 47.494929 0.000000 0.000000 0.000000 
-2.890740 131.416626 15.076147 0.000000 0.000000 0.000000 5.367080 -19.547708 11.032747 -100.225315 -7.683709 23.233754 60.043455 -6.815016 -14.600952 18.798663 -6.682051 11.545544 0.000000 0.000000 0.000000 5.367080 -19.547708 11.032747 -118.545719 2.673372 10.755273 121.186762 -7.693712 -2.328086 50.805959 1.123969 -1.601518 0.000000 0.000000 0.000000 5.367080 -19.547708 11.032747 0.000000 0.000001 -0.000001 34.120773 -7.159695 -10.793881 -1.705503 -0.826083 -1.172772 0.000000 0.000000 0.000000 -1.718724 -1.101914 -0.901945 -5.228491 1.916171 1.542011 0.000000 0.000000 0.000000 -1.718724 -1.101914 -0.901945 13.329978 -28.376444 28.717370 -55.448572 15.227888 10.991225 -68.123754 -71.308158 -47.693042 0.000000 0.000000 0.000000 -1.718724 -1.101914 -0.901945 3.694515 8.731532 -22.067274 -77.217679 -16.836298 -27.351911 -55.432313 62.389776 51.618021 0.000000 0.000000 0.000000 
-3.049223 131.367691 19.678556 0.000000 0.000000 0.000000 5.063392 -19.967759 10.796208 -96.691634 -7.303091 21.580806 56.615769 -4.749797 -13.899282 20.282406 -7.417375 11.067779 0.000000 0.000000 0.000000 5.063392 -19.967759 10.796208 -116.641190 4.262555 9.655201 117.595367 -7.719701 -2.180549 49.123530 1.498281 2.203286 0.000000 0.000000 0.000000 5.063392 -19.967759 10.796208 0.000000 -0.000001 0.000000 33.273092 -7.027174 -10.584730 -1.359156 -0.996963 -1.581733 0.000000 0.000000 0.000000 -1.480002 -1.199184 -0.910618 -5.023299 1.893439 1.673765 0.000000 0.000000 0.000000 -1.480002 -1.199184 -0.910618 11.862441 -27.977715 26.191836 -55.866013 16.656009 11.417594 -90.273722 -72.340016 -70.563545 0.000000 0.000000 0.000000 -1.480002 -1.199184 -0.910618 3.769982 11.074709 -19.093290 -80.238699 -18.402082 -30.381573 -59.729308 63.810079 56.438809 0.000000 0.000000 0.000000 
-3.213427 131.140747 24.074492 0.000000 0.000000 0.000000 4.755886 -20.617862 10.629342 -92.608780 -7.704313 19.566808 52.349257 -2.004438 -12.959466 22.358462 -8.218184 10.245048 0.000000 0.000000 0.000000 4.755886 -20.617862 10.629342 -112.666375 5.924659 8.159419 113.100959 -6.309456 -1.929108 46.217896 0.657907 7.208629 0.000000 0.000000 0.000000 4.755886 -20.617862 10.629342 0.000000 0.000001 -0.000001 31.932726 -6.693169 -10.264701 -0.846953 -1.225807 -2.282628 0.000000 0.000000 0.000000 -0.947537 -1.280961 -1.065719 -4.761086 1.859638 1.870427 0.000000 0.000000 0.000000 -0.947537 -1.280961 -1.065719 9.913577 -27.228085 23.284596 -55.741020 16.364886 11.372910 -102.459060 -71.986007 -83.327898 0.000000 0.000000 0.000000 -0.947537 -1.280961 -1.065719 3.679089 13.977360 -16.002228 -82.618262 -19.392440 -32.930534 -63.588795 64.803783 60.717267 0.000000 0.000000 0.000000 
-3.390065 130.721466 28.327362 0.000000 0.000000 0.000000 4.424988 -21.445211 10.513024 -88.063241 -8.760738 17.267318 46.688492 -1.213909 -11.907902 24.950650 -6.633222 8.380572 0.000000 0.000000 0.000000 4.424988 -21.445211 10.513024 -107.273196 7.302452 6.009883 107.839890 -5.973937 -1.756177 42.661857 0.363945 11.314343 0.000000 0.000000 0.000000 4.424988 -21.445211 10.513024 0.000000 -0.000001 0.000000 30.070615 -6.102710 -9.778287 -0.381175 -1.474027 -3.165739 0.000000 0.000000 0.000000 0.072341 -1.341967 -1.344944 -4.506775 1.819004 2.113438 0.000000 0.000000 0.000000 0.072341 -1.341967 -1.344944 7.384987 -26.512817 19.097296 -54.763644 13.973008 11.692077 -104.918932 -71.854539 -85.984002 0.000000 0.000000 0.000000 0.072341 -1.341967 -1.344944 3.475393 16.714448 -13.717871 -83.978890 -20.223611 -34.367115 -65.879504 65.349180 63.252435 0.000000 0.000000 0.000000 
-3.594795 130.066940 32.443935 0.000000 0.000000 0.000000 4.053976 -22.410906 10.433752 -82.959819 -10.412115 15.051881 40.159784 1.200878 -10.409277 28.454148 -6.425001 6.713652 0.000000 0.000000 0.000000 4.053976 -22.410906 10.433752 -101.103739 7.868608 3.222470 102.023792 -5.697734 -1.604468 38.977407 -0.193972 14.924409 0.000000 0.000000 0.000000 4.053976 -22.410906 10.433752 0.000000 0.000001 0.000000 27.807935 -5.152415 -9.115360 0.127464 -1.788173 -4.189708 0.000000 0.000000 0.000000 1.369446 -1.443078 -1.885277 -4.325127 1.778316 2.384609 0.000000 0.000000 0.000000 1.369446 -1.443078 -1.885277 5.147567 -25.541226 15.539838 -53.331312 11.122283 11.352305 -100.821638 -72.171303 -81.786666 0.000000 0.000000 0.000000 1.369446 -1.443078 -1.885277 3.512199 19.269002 -12.925303 -84.968892 -22.266253 -34.717831 -67.982621 65.843106 65.579371 0.000000 0.000000 0.000000 
-3.862284 129.057983 36.782463 0.000000 0.000000 0.000000 3.615710 -23.429077 10.442160 -77.852648 -12.572562 12.982488 33.419918 2.304635 -8.865519 32.082228 -5.086079 4.474856 0.000000 0.000000 0.000000 3.615710 -23.429077 10.442160 -94.652755 7.652696 -0.119331 96.474257 -5.312768 -1.451213 34.871715 -0.810797 18.099779 0.000000 0.000000 0.000000 3.615710 -23.429077 10.442160 0.000000 0.000000 0.000000 25.182808 -4.245611 -8.222584 0.768791 -2.016840 -5.232053 0.000000 0.000000 0.000000 2.917915 -1.438414 -2.639962 -4.281481 1.747555 2.666593 0.000000 0.000000 0.000000 2.917915 -1.438414 -2.639962 3.452674 -23.952806 13.378333 -51.830197 9.288682 9.883999 -94.834718 -72.348717 -75.647986 0.000000 0.000000 0.000000 2.917915 -1.438414 -2.639962 3.380360 21.195013 -12.573510 -85.184678 -24.444880 -34.091831 -69.896461 66.273216 67.692987 0.000000 0.000000 0.000000 
-4.182125 127.650406 41.165031 0.000000 0.000000 0.000000 3.123846 -24.624768 10.433114 -72.608039 -15.121393 11.435332 26.374396 3.693219 -7.111691 36.214749 -4.283852 2.314556 0.000000 0.000000 0.000000 3.123846 -24.624768 10.433114 -87.552302 6.408404 -3.835926 89.980933 -4.711347 -1.294912 31.164234 -1.365352 20.694046 0.000000 0.000000 0.000000 3.123846 -24.624768 10.433114 -0.000000 0.000001 0.000001 22.273052 -3.102033 -7.146878 1.575148 -2.141973 -6.289364 0.000000 0.000000 0.000000 4.440255 -1.378346 -3.501547 -4.465552 1.742588 2.941177 0.000000 0.000000 0.000000 4.440255 -1.378346 -3.501547 1.932211 -22.434077 11.583957 -50.251976 7.255920 8.011675 -85.652778 -72.191596 -66.221225 0.000000 0.000000 0.000000 4.440255 -1.378346 -3.501547 2.970619 22.647061 -12.020710 -84.168339 -25.752619 -32.416843 -70.949696 66.554210 68.865177 0.000000 0.000000 0.000000 
-4.624127 125.919685 45.585033 0.000000 0.000000 0.000000 0.941498 -25.948054 10.351930 -65.513747 -17.087702 10.026619 18.504041 5.173308 -5.105350 40.865578 -4.045007 0.421668 0.000000 0.000000 0.000000 0.941498 -25.948054 10.351930 -78.087572 4.802585 -8.246980 82.098143 -3.775213 -1.127792 28.086682 -1.549577 22.889566 0.000000 0.000000 0.000000 0.941498 -25.948054 10.351930 -0.000000 -0.000001 -0.000001 19.687590 -2.026428 -5.769561 3.009684 -2.139174 -7.621359 0.000000 0.000000 0.000000 6.486238 -1.294897 -4.769726 -4.788041 1.761985 3.199509 0.000000 0.000000 0.000000 6.486238 -1.294897 -4.769726 0.756375 -21.123437 10.453769 -48.720822 4.624451 5.744865 -70.435253 -70.559911 -50.527745 0.000000 0.000000 0.000000 6.486238 -1.294897 -4.769726 2.428937 23.981843 -11.359234 -82.358954 -25.647845 -30.412476 -71.804290 66.810766 69.820284 0.000000 0.000000 0.000000 
